<svg xmlns="http://www.w3.org/2000/svg" xmlns:xlink="http://www.w3.org/1999/xlink" preserveAspectRatio="xMidYMid" width="612" height="471" viewBox="0 0 612 471">
  <defs>
    <style>
      .cls-1 {
        fill: #26650a;
        fill-rule: evenodd;
      }
    </style>
  </defs>
  <path d="M7.057,259.209 C2.352,254.503 -0.001,247.443 -0.001,242.736 C-0.001,238.030 2.352,230.970 7.057,226.264 L39.992,193.318 C49.402,183.905 63.517,183.905 72.927,193.318 L75.279,195.672 L204.666,334.513 C209.371,339.219 216.429,339.219 221.134,334.513 L536.368,7.413 L538.721,7.413 L538.721,7.413 L538.721,7.413 C548.131,-2.000 562.246,-2.000 571.656,7.413 L604.591,40.358 C614.001,49.771 614.001,63.890 604.591,73.303 L604.591,73.303 L604.591,73.303 L228.191,463.941 C223.486,468.647 218.781,471.000 211.724,471.000 C204.666,471.000 199.961,468.647 195.256,463.941 L11.762,266.269 L7.057,259.209 Z" class="cls-1"/>
</svg>
