<svg xmlns="http://www.w3.org/2000/svg" xmlns:xlink="http://www.w3.org/1999/xlink" preserveAspectRatio="xMidYMid" width="800" height="679" viewBox="0 0 800 679">
  <defs>
    <style>
      .cls-1 {
        fill: #48bc14;
        fill-rule: evenodd;
      }
    </style>
  </defs>
  <path d="M795.596,400.352 C740.227,479.730 684.860,558.945 629.327,638.323 C625.372,644.087 620.758,646.887 616.144,646.887 C611.860,646.887 607.575,644.417 603.950,639.641 C573.629,600.445 543.474,561.415 513.318,522.220 C508.704,516.126 504.585,509.539 500.465,503.116 C497.004,497.681 497.664,492.411 501.783,487.471 C503.266,485.659 504.585,484.012 506.233,482.365 C511.835,476.601 516.449,473.637 521.393,473.637 C525.348,473.637 529.632,475.613 534.740,479.401 C557.481,496.364 579.727,513.986 602.302,531.442 C606.422,534.735 610.541,537.864 614.991,541.323 C623.889,531.112 632.458,521.232 641.027,511.351 C679.257,467.049 717.487,422.914 755.718,378.614 C763.298,369.885 768.241,365.603 773.844,365.603 C778.787,365.603 784.225,368.897 792.135,375.320 C803.175,384.377 804.000,388.329 795.596,400.352 ZM617.792,491.094 C615.321,493.729 613.014,496.529 610.706,499.164 C607.575,496.858 604.610,494.388 601.479,492.082 C585.824,479.895 569.345,467.049 552.867,454.863 C542.321,446.958 531.939,443.171 521.393,443.171 C504.090,443.171 492.061,453.381 484.481,460.956 C482.009,463.591 480.031,465.897 478.219,468.038 C465.531,483.354 464.048,503.116 474.594,519.585 L475.912,521.561 C479.867,527.818 484.151,534.406 489.095,540.829 C507.056,564.379 525.512,588.094 543.639,611.644 C487.117,653.969 416.754,679.000 340.623,679.000 C153.097,679.000 1.000,526.996 1.000,339.583 C1.000,152.170 153.097,0.164 340.458,-0.000 C527.984,-0.000 680.081,152.005 680.081,339.418 C680.081,372.520 675.302,404.469 666.404,434.771 C650.254,453.546 634.106,472.319 617.792,491.094 ZM323.650,227.267 C329.747,224.632 336.174,223.644 342.766,223.314 C367.977,221.832 391.871,226.443 414.612,237.477 C425.981,242.912 429.772,241.265 433.562,229.408 C437.517,216.891 440.977,204.210 444.602,191.694 C447.075,183.295 444.108,177.531 436.033,174.073 C421.533,167.650 406.537,163.039 390.718,160.569 C370.120,157.440 370.285,157.275 370.120,136.689 C369.954,107.540 369.954,107.540 340.788,107.540 C336.668,107.540 332.383,107.375 328.099,107.540 C314.422,107.869 312.115,110.175 311.785,124.009 C311.785,130.102 311.785,136.360 311.785,142.453 C311.621,160.734 311.621,160.404 294.153,166.827 C251.804,182.143 225.768,210.963 222.966,257.075 C220.495,297.917 241.752,325.420 275.368,345.511 C296.131,357.863 318.871,365.274 340.788,374.826 C349.356,378.614 357.431,382.895 364.681,388.823 C385.774,406.116 381.819,435.101 356.937,445.970 C343.425,451.734 329.418,453.216 314.916,451.405 C292.506,448.605 271.084,442.841 250.980,432.301 C239.116,426.043 235.655,427.690 231.700,440.535 C228.240,451.570 225.273,462.767 222.143,473.966 C218.023,488.953 219.506,492.576 233.842,499.493 C252.133,508.221 271.578,512.833 291.517,515.962 C307.172,518.432 307.666,519.091 307.831,535.229 C307.831,542.476 307.831,549.887 307.996,557.133 C308.160,566.355 312.610,571.790 322.002,571.955 C332.878,572.284 343.754,572.284 354.465,571.955 C363.199,571.625 367.812,566.849 367.812,557.956 C367.812,547.910 368.307,537.864 367.812,527.818 C367.318,517.609 371.602,512.339 381.490,509.704 C404.066,503.610 423.345,491.423 438.176,473.472 C479.208,423.573 463.388,350.617 404.889,318.667 C386.598,308.622 367.318,300.881 348.039,292.976 C336.998,288.365 326.287,282.930 316.894,275.519 C298.438,260.698 301.898,236.819 323.650,227.267 Z" class="cls-1"/>
</svg>
